<svg xmlns="http://www.w3.org/2000/svg" version="1.1" xmlns:xlink="http://www.w3.org/1999/xlink" xmlns:svgjs="http://svgjs.dev/svgjs" width="100%" height="100%" viewBox="0 0 1000 600"><rect width="1000" height="600" x="0" y="0" fill="#050505"/><g><circle r="166.66666666666666" cx="222.22222391764322" cy="244.4444359673398" fill="0" transform="matrix(2.2499999313354513,0,0,2.2499999313354517,0,-249.99999847412175)"/><path d="M162.41209785741324 216.3326316108723L162.41209785741324 293.2313643440526L136.01441902822484 319.44444402058934L120.63994674309313 319.44444402058934L94.42686706655638 293.2313643440526L94.42686706655638 216.3326316108723L113.04501017685311 235.13537387382073L113.04501017685311 290.19866397906094L128.41948246198484 305.01933880623767L143.60935559446486 290.19866397906094L143.60935559446486 235.13537387382073L162.41209785741324 216.3326316108723ZM250.1230666744769 256.2060485836324L250.1230666744769 302.936005512026L233.98382647121684 319.44444402058934L199.43741361783339 319.44444402058934L183.2981734145733 302.936005512026L183.2981734145733 286.5857948485925L202.10091567752173 286.5857948485925L202.10091567752173 302.936005512026L231.34669571905016 302.936005512026L231.34669571905016 253.75351698411745L200.57137984126507 253.75351698411745L200.57137984126507 240.0668083803724L233.6146281659135 207.04993136324563L233.6146281659135 204.75562760886064L183.2981734145733 204.75562760886064L183.2981734145733 188.24718910029722L250.1230666744769 188.24718910029722L250.1230666744769 209.317863810109L221.85302501125014 237.42967762820572L221.85302501125014 239.6976100750691L233.6146281659135 239.6976100750691L250.1230666744769 256.2060485836324ZM350.01757956655047 169.44444683734883L350.01757956655047 319.44444402058934L331.39943645625374 319.44444402058934L331.39943645625374 305.3885371115409L317.73909916003043 319.44444402058934L298.540787284257 319.44444402058934L282.21694792834535 302.936005512026L282.21694792834535 237.42967762820572L298.540787284257 220.89486781212068L331.39943645625374 220.89486781212068L331.39943645625374 188.0625899476456L350.01757956655047 169.44444683734883ZM301.01969019129365 302.936005512026L331.39943645625374 302.936005512026L331.39943645625374 223.18917156650568L316.97433124190206 237.42967762820572L301.01969019129365 237.42967762820572L301.01969019129365 302.936005512026Z " fill="#00c8be" transform="matrix(2.2499999313354513,0,0,2.2499999313354517,0,-249.99999847412175)"/><path d="MNaN 244.44444783528658 " fill="#616161" transform="matrix(2.2499999313354513,0,0,2.2499999313354517,0,-249.99999847412175)"/></g></svg>